<?xml version="1.0" encoding="UTF-8"?><svg id="_圖層_2" xmlns="http://www.w3.org/2000/svg" viewBox="0 0 240.03 79.26"><defs><style>.cls-1{fill:#d2dc00;}.cls-2{fill:#3e3a39;}.cls-3{fill:#85d0f4;}</style></defs><g id="_圖層_1-2"><g><path class="cls-2" d="m104.85,78.26h-5.81v.78h-1.29v-8.6c-.23.35-.44.69-.69.98-.09-.14-.25-.35-.4-.57v1.29h-1.01v5.29c0,.75-.15,1.15-.61,1.36-.46.21-1.19.26-2.33.26-.05-.37-.21-.96-.38-1.33.78.02,1.51.02,1.74.02.23-.02.31-.08.31-.31v-4.65c-.72,1.87-1.76,3.69-2.78,4.79-.23-.29-.64-.75-.95-.98,1.04-.96,2.11-2.74,2.8-4.45h-2.43c.29-1.3.67-3.38.9-5.06h-.9v-1.3h5.66v1.3h-1.02v3.75h.99c-.15-.2-.32-.41-.44-.52,1.09-1.3,1.99-3.31,2.54-5.29l1.25.34c-.25.8-.54,1.62-.87,2.43h2.4c-.11-.64-.43-1.53-.75-2.2l1.25-.37c.37.7.7,1.64.84,2.28l-.87.29h2.78v1.27h-2.25v1.82h1.9v1.21h-1.9v1.84h1.9v1.21h-1.9v1.84h2.31v1.3Zm-11.72-11.19c-.18,1.19-.41,2.59-.63,3.75h1.88v-3.75h-1.25Zm8.09,1.97h-2.19v1.82h2.19v-1.82Zm0,3.03h-2.19v1.84h2.19v-1.84Zm-2.19,4.88h2.19v-1.84h-2.19v1.84Z"/><path class="cls-2" d="m111.84,76.7c.96.47,2.22.61,3.82.61.87,0,5.08,0,6.18-.05-.23.34-.49.99-.58,1.41h-5.62c-3.14,0-5-.47-6.21-2.57-.18,1.06-.52,2.08-1.04,2.95-.2-.29-.66-.72-.93-.84,1.02-1.79,1.12-4.25,1.06-6.3l1.19.06c.02.61.02,1.22-.02,1.85.23.77.52,1.36.89,1.84v-4.88h-2.72v-1.25h2.34v-1.56h-1.96v-1.25h1.96v-1.68h1.29v1.68h1.56v1.25h-1.56v1.56h1.84v1.25h-1.48v1.79h1.45v1.24h-1.45v2.89Zm2.07-9.87h-.73v-1.21h5.09v1.18h2.23l.23-.05.73.24c-.21,1.97-.57,3.76-1.06,5.32.6,1.27,1.1,2.49,1.36,3.4l-1.12.46c-.18-.63-.46-1.42-.8-2.28-.46,1.12-1.01,2.07-1.61,2.77-.15-.23-.46-.6-.72-.83v1.12h-1.15v-2.08l-2.98.81-.28-1.18.78-.17v-7.51Zm2.48,0h-1.35v1.56h1.35v-1.56Zm-1.35,4.28h1.35v-1.61h-1.35v1.61Zm1.35,2.65v-1.53h-1.35v1.85l1.35-.32Zm1.15,1.76c.66-.81,1.21-1.9,1.67-3.21-.49-1.06-1.03-2.14-1.56-3.11l1.01-.34c.34.58.69,1.22,1.01,1.87.21-.89.38-1.81.51-2.8h-2.23v-1.1h-.4v8.69Z"/><path class="cls-2" d="m127.7,70.24v8.81h-1.39v-8.81h-1.78v-1.3h1.78v-3.92h1.39v3.92h1.58v1.3h-1.58Zm10.85,5.4h-2.11v2c0,.66-.12,1.01-.63,1.21-.47.18-1.21.2-2.31.2-.06-.35-.21-.87-.38-1.21.78.03,1.55.03,1.76.02.23-.02.29-.06.29-.23v-1.99h-3.63c.67.47,1.45,1.04,1.9,1.41l-.89.96c-.51-.49-1.51-1.25-2.26-1.81l.57-.57h-2.04v-1.15h6.35v-.67h1.27v.67h2.11v1.15Zm-5.4-7.88h-3.82v-1.12h3.82v-1.62h1.32v1.62h2.22c-.52-.28-1.12-.6-1.61-.84l.66-.78c.72.32,1.71.8,2.23,1.1l-.4.52h.81v1.12h-3.92v.64h3.32v4.38c0,.54-.11.73-.47.89-.38.14-.9.14-1.65.14-.08-.28-.26-.63-.4-.87.49.02.92.02,1.07,0,.15,0,.2-.05.2-.18v-.38h-2.07v1.13h-1.32v-1.13h-2.05v1.39h-1.21v-5.36h3.26v-.64Zm-2.05,1.59v.7h2.05v-.7h-2.05Zm2.05,2.19v-.64h-2.05v.64h2.05Zm1.32-2.19v.7h2.07v-.7h-2.07Zm2.07,2.19v-.64h-2.07v.64h2.07Z"/><path class="cls-2" d="m149.09,77.39h5.8v1.29h-12.91v-1.29h5.62v-2.25h-4.12v-1.24h4.12v-2.08h-3.43v-1.24c-.67.47-1.35.89-1.99,1.22-.2-.37-.57-.86-.89-1.16,1.82-.8,3.92-2.31,5.4-3.86h-2.43v-1.33h4.88c1.36,2.04,3.92,4.02,6.4,5-.29.29-.75.89-.96,1.29-.66-.31-1.33-.69-1.97-1.12v1.19h-3.5v2.08h4.16v1.24h-4.16v2.25Zm-4.9-6.82h8.31c-1.58-1.06-3.05-2.42-4.13-3.78-1.1,1.33-2.63,2.69-4.18,3.78Z"/><path class="cls-2" d="m172.36,70.29c-.81,1.07-1.79,2.33-2.59,3.15.67,1.41,1.61,2.46,2.98,3.43-.32.26-.72.7-.87,1.1-1.5-1.13-2.52-2.37-3.24-3.98v3.41c0,.76-.18,1.16-.64,1.39-.47.24-1.19.29-2.37.29-.06-.37-.31-.99-.49-1.36.83.03,1.56.02,1.79.02.25-.02.34-.09.34-.34v-3.12c-1.18,1.18-2.39,2.33-3.4,3.24l-.87-1.24.21-.17c-1.58.52-3.23,1.04-4.51,1.44l-.31-1.36c.54-.14,1.21-.34,1.93-.55v-3.98h-1.64v-1.32h1.64v-3.04h-1.74v-1.32h4.73v1.32h-1.67v3.04h1.44v1.32h-1.44v3.58l1.74-.54.18,1.13c1.01-.81,2.4-1.99,3.7-3.11v-3.84h-3.63v-1.32h3.63v-2.54h1.38v2.54h3.87v1.32h-3.87v.63c.17,1.04.38,1.93.64,2.72.66-.81,1.38-1.81,1.84-2.6l1.24.64Zm-7.45-.55c.64.84,1.33,1.97,1.59,2.72l-1.18.57c-.23-.76-.89-1.93-1.51-2.8l1.1-.49Zm6.12-2.17c-.37-.49-1.13-1.19-1.78-1.67l.8-.73c.66.44,1.45,1.1,1.84,1.56l-.86.84Z"/><path class="cls-2" d="m181.17,68.27c-.26.52-.52,1.04-.81,1.53h7.24v7.62c0,.76-.15,1.19-.7,1.41-.54.23-1.39.23-2.66.23-.05-.38-.26-1-.44-1.38.9.05,1.82.05,2.08.03.26,0,.34-.08.34-.31v-1.32h-6.17c-.23,1.15-.7,2.27-1.61,3.09-.18-.32-.75-.92-1.03-1.12,1.29-1.18,1.41-2.85,1.41-4.27v-1.81c-.66.78-1.39,1.47-2.22,2.05-.21-.32-.64-.83-.93-1.1,1.68-1.13,2.98-2.83,3.93-4.67h-3.6v-1.33h4.19c.26-.64.47-1.29.64-1.91l1.45.34c-.17.52-.34,1.06-.55,1.58h7.62v1.33h-8.19Zm5.03,6.63v-1.33h-5.97v.26c0,.34-.02.7-.05,1.07h6.01Zm0-3.84h-5.97v1.32h5.97v-1.32Z"/><path class="cls-2" d="m198.27,66.13c-.43,1.25-.95,2.75-1.42,3.93,1.01,1.25,1.24,2.33,1.24,3.26s-.18,1.53-.63,1.87c-.23.17-.49.26-.83.31-.28.03-.66.03-.99.03,0-.35-.12-.89-.34-1.24.32.02.57.03.8.02.17,0,.32-.05.44-.12.21-.17.29-.55.29-1.01,0-.78-.25-1.79-1.22-2.94.37-1.01.76-2.29,1.04-3.3h-1.88v12.1h-1.24v-13.37h3.61l.2-.06.93.54Zm8.29,7.68c-.73.6-1.65,1.21-2.42,1.67.7,1.01,1.61,1.81,2.74,2.28-.31.28-.76.84-.95,1.21-2.34-1.18-3.67-3.5-4.42-6.5h-1.24v4.7l2.45-.57c0,.4.02.96.08,1.29-3.06.81-3.58.99-3.9,1.21-.11-.32-.41-.89-.63-1.15.26-.15.63-.52.63-1.18v-11.08h6.76v6.78h-2.91c.21.7.46,1.38.78,2.02.72-.51,1.56-1.15,2.08-1.67l.95.99Zm-6.29-6.89v1.55h4.01v-1.55h-4.01Zm0,4.3h4.01v-1.59h-4.01v1.59Z"/><path class="cls-2" d="m215.56,65.93c-1.09,2.49-2.82,5-4.5,6.55-.25-.29-.89-.89-1.25-1.18,1.67-1.38,3.26-3.61,4.19-5.86l1.56.49Zm4.3,7.15c1.22,1.65,2.66,3.79,3.38,5.17l-1.44.78c-.21-.44-.47-.93-.81-1.48-7.67.57-8.58.63-9.26.89-.06-.32-.35-1.12-.57-1.53.46-.12.87-.58,1.47-1.29.63-.67,2.57-3.34,3.79-5.89l1.65.67c-1.25,2.23-2.78,4.45-4.32,6.21l6.41-.38c-.57-.89-1.16-1.77-1.7-2.54l1.38-.61Zm.29-7.67c.7,2.29,2.17,4.53,3.99,5.66-.34.32-.84.96-1.1,1.41-1.73-1.3-3.14-3.44-3.98-5.62h-2.66v-1.45h3.75Z"/><path class="cls-2" d="m240.03,77.11c0,.9-.18,1.38-.75,1.61-.58.26-1.53.29-2.89.28-.06-.41-.29-1.13-.49-1.55.98.05,2,.05,2.29.03s.38-.09.38-.38v-9.76h-10.82v-1.36h12.27v11.14Zm-3.11-7.15h-9.04v-1.25h9.04v1.25Zm-6.78,6.38v1.12h-1.38v-6.07h7.21v4.96h-5.83Zm0-3.73v2.49h4.44v-2.49h-4.44Z"/></g><g><path class="cls-2" d="m106.82,46.92h-18.07l-2.8,7.09h-6.14l15.08-36.15h5.79l15.13,36.15h-6.14l-2.85-7.09Zm-1.85-4.64l-7.19-18.02-7.19,18.02h14.38Z"/><path class="cls-2" d="m118.59,25.46h5.59v4.79c1.1-3.05,4.09-5.84,10.04-4.99l-.6,5.39c-6.39-1.2-9.44,2.25-9.44,9.24v14.13h-5.59v-28.56Z"/><path class="cls-2" d="m139.8,42.63v-12.83h-4.14v-4.34h4.14v-5.24l5.64-1.2v6.44h8.44v4.34h-8.44v12.18c0,5.89,1.55,7.94,5.89,7.94.55,0,1.2-.1,2.3-.25l.75,4.34c-1.1.25-2.7.4-3.89.4-7.34,0-10.68-3.05-10.68-11.78Z"/><path class="cls-2" d="m158.42,25.46h5.59v4.79c1.1-3.05,4.09-5.84,10.04-4.99l-.6,5.39c-6.39-1.2-9.44,2.25-9.44,9.24v14.13h-5.59v-28.56Z"/><path class="cls-2" d="m177.29,18.32c0-1.9,1.4-3,3.3-3,1.8,0,3.34,1.1,3.34,3s-1.55,2.99-3.34,2.99c-1.9,0-3.3-1.15-3.3-2.99Zm.5,7.14h5.54v28.56h-5.54v-28.56Z"/><path class="cls-2" d="m195.61,48.57v5.39h-5.59V16.17h5.59v14.83c1.6-3.89,5.59-6.09,10.08-6.09,7.04,0,13.13,4.99,13.13,14.83s-6.09,14.93-13.08,14.93c-4.49,0-8.54-2.25-10.14-6.09Zm17.62-8.84c0-6.24-3.6-10.08-8.94-10.08s-8.84,3.79-8.84,10.08,3.59,10.13,8.94,10.13,8.84-3.84,8.84-10.13Z"/><path class="cls-2" d="m224.41,25.46h5.59v4.79c1.1-3.05,4.09-5.84,10.04-4.99l-.6,5.39c-6.39-1.2-9.44,2.25-9.44,9.24v14.13h-5.59v-28.56Z"/></g><g><polygon class="cls-1" points="75 79.26 38.05 14.74 1.52 79.26 75 79.26"/><polygon class="cls-3" points="73.98 79.26 50.83 30.14 24.85 79.26 73.98 79.26"/><path class="cls-2" d="m0,79.26h6.22L38.94,20.09l7.45,13.48-24.65,45.7h6.18l9.91-18.37h23.67l10.16,18.37h6.22L42.05,14.46l6.54-11.83-4.76-2.63-4.89,8.84L34.05,0l-4.76,2.63,6.54,11.83L0,79.26Zm58.5-23.81h-17.72l8.75-16.22,8.97,16.22Z"/></g></g></svg>